<?xml version="1.0" standalone="no"?>
<!DOCTYPE svg PUBLIC "-//W3C//DTD SVG 20010904//EN"
 "http://www.w3.org/TR/2001/REC-SVG-20010904/DTD/svg10.dtd">
<svg version="1.0" xmlns="http://www.w3.org/2000/svg"
 width="1121.000000pt" height="338.000000pt" viewBox="0 0 1121.000000 338.000000"
 preserveAspectRatio="xMidYMid meet">

<g transform="translate(0.000000,338.000000) scale(0.100000,-0.100000)"
fill="#000000" stroke="none">
<path d="M5086 3359 l-26 -20 0 -365 0 -364 515 0 515 0 0 -1030 0 -1030 -518
0 c-490 0 -520 -1 -535 -18 -15 -16 -17 -49 -17 -249 0 -210 2 -231 18 -246
17 -16 130 -17 1420 -17 1260 0 1402 2 1416 16 13 12 16 41 16 150 l0 134
-110 0 -110 0 0 115 0 115 -345 0 -345 0 0 1415 0 1415 -934 0 c-929 0 -933 0
-960 -21z"/>
<path d="M57 3292 c-16 -17 -17 -143 -17 -1609 0 -1528 1 -1591 18 -1606 17
-16 152 -17 1734 -17 1649 0 1716 1 1731 18 16 17 17 143 17 1609 0 1528 -1
1591 -18 1606 -17 16 -152 17 -1734 17 -1649 0 -1716 -1 -1731 -18z m3023
-1627 l0 -1125 -1275 0 -1275 0 0 1125 0 1125 1275 0 1275 0 0 -1125z"/>
<path d="M9767 3242 c-15 -17 -17 -56 -17 -359 0 -317 1 -341 18 -356 17 -15
56 -17 360 -17 l341 0 15 22 c14 19 16 71 16 359 0 313 -1 337 -18 352 -17 15
-56 17 -359 17 -317 0 -341 -1 -356 -18z"/>
<path d="M8727 2402 c-15 -16 -17 -54 -17 -324 0 -283 1 -306 18 -321 16 -15
51 -17 289 -17 249 0 271 1 286 18 15 16 17 54 17 324 0 283 -1 306 -18 321
-16 15 -51 17 -289 17 -249 0 -271 -1 -286 -18z"/>
<path d="M10547 1912 c-15 -16 -17 -53 -17 -309 0 -268 1 -291 18 -306 16 -15
53 -17 309 -17 268 0 291 1 306 18 15 16 17 53 17 309 0 268 -1 291 -18 306
-16 15 -53 17 -309 17 -268 0 -291 -1 -306 -18z"/>
<path d="M9087 1252 c-15 -16 -17 -47 -17 -219 0 -181 2 -201 18 -216 16 -15
48 -17 244 -17 205 0 226 2 241 18 15 16 17 47 17 219 0 181 -2 201 -18 216
-16 15 -48 17 -244 17 -205 0 -226 -2 -241 -18z"/>
<path d="M8067 902 c-15 -16 -17 -50 -17 -269 0 -229 1 -251 18 -266 16 -15
47 -17 229 -17 191 0 211 2 226 18 15 16 17 50 17 269 0 229 -1 251 -18 266
-16 15 -47 17 -229 17 -191 0 -211 -2 -226 -18z"/>
</g>
</svg>
